<svg xmlns="http://www.w3.org/2000/svg" viewBox="0 0 60 60" height="48" width="48"><g><path d="M40,33.45s-3.19-1.58-3.76-1.77a1.5,1.5,0,0,0-2,.52c-.27.42-1.08,1.37-1.5,1.92a13.49,13.49,0,0,1-4.1-2.46,18.9,18.9,0,0,1-2.7-3.21,7.57,7.57,0,0,0,1.5-2.05,1.65,1.65,0,0,0,0-1.5l-.94-2.26-.59-1.38a2.26,2.26,0,0,0-1.8-1.32,3.28,3.28,0,0,0-2.88.84c-2.74,2.93-2.62,6.49.26,10.28a20.71,20.71,0,0,0,8.91,7.74,16,16,0,0,0,5.19,1.5,5.85,5.85,0,0,0,5.25-3.13,3,3,0,0,0,.19-3A2,2,0,0,0,40,33.45Z" fill="#03b901"></path><path d="M47,0H13A13,13,0,0,0,0,13V47A13,13,0,0,0,13,60H47A13,13,0,0,0,60,47V13A13,13,0,0,0,47,0ZM45.15,39.69A17.91,17.91,0,0,1,20.4,45.06l-6.29,2a.74.74,0,0,1-.94-.94l2-6A17.65,17.65,0,0,1,12,30a18,18,0,1,1,33.15,9.74Z" fill="#03b901"></path></g></svg>